<svg width="27" height="24" viewBox="0 0 27 24" fill="none" xmlns="http://www.w3.org/2000/svg">
<path d="M10.3783 11.7768H1.26868M25.0059 20.4424L17.1976 22.2502C17.0027 22.2949 16.7993 22.2972 16.6033 22.2571C16.4073 22.2169 16.224 22.1352 16.0678 22.0185C15.9115 21.9018 15.7865 21.7532 15.7025 21.5843C15.6186 21.4154 15.578 21.2308 15.5839 21.045V2.47251C15.578 2.28667 15.6186 2.10209 15.7025 1.9332C15.7865 1.76432 15.9115 1.61571 16.0678 1.499C16.224 1.38228 16.4073 1.30064 16.6033 1.26044C16.7993 1.22024 17.0027 1.22259 17.1976 1.26729L25.0059 3.07512C25.2946 3.14111 25.5503 3.2967 25.7302 3.51598C25.9102 3.73527 26.0036 4.00503 25.9949 4.28034V19.2733C25.9947 19.5425 25.8972 19.8038 25.7179 20.0157C25.5387 20.2276 25.288 20.3778 25.0059 20.4424Z" stroke="white" stroke-width="2" stroke-linecap="round" stroke-linejoin="round"/>
</svg>
